<?xml version="1.0" encoding="utf-8"?>
<!-- Generator: Adobe Illustrator 14.0.0, SVG Export Plug-In . SVG Version: 6.00 Build 43363)  -->
<!DOCTYPE svg PUBLIC "-//W3C//DTD SVG 1.1//EN" "http://www.w3.org/Graphics/SVG/1.1/DTD/svg11.dtd">
<svg version="1.1" id="Layer_1" xmlns="http://www.w3.org/2000/svg" xmlns:xlink="http://www.w3.org/1999/xlink" x="0px" y="0px"
	 width="100px" height="85.371px" viewBox="0 0 100 85.371" enable-background="new 0 0 100 85.371" xml:space="preserve">
<g>
	<rect width="100" height="85.371"/>
	<polygon fill="#FFFFFF" points="92.164,6.08 92.164,6.08 81.257,6.08 81.257,17.082 92.164,17.082 	"/>
	<polygon fill="#FFFFFF" points="73.812,6.08 73.812,6.08 62.901,6.08 62.901,17.082 73.812,17.082 	"/>
	<polygon fill="#FFFFFF" points="55.456,6.08 55.456,6.08 44.546,6.08 44.546,17.082 55.456,17.082 	"/>
	<polygon fill="#FFFFFF" points="37.102,6.08 37.102,6.08 26.188,6.08 26.188,17.082 37.102,17.082 	"/>
	<polygon fill="#FFFFFF" points="37.102,6.08 37.102,6.08 26.188,6.08 26.188,17.082 37.102,17.082 	"/>
	<polygon fill="#FFFFFF" points="18.743,6.08 18.743,6.08 7.836,6.08 7.836,17.082 18.743,17.082 	"/>
	<polygon fill="#FFFFFF" points="92.164,68.288 92.164,68.288 81.257,68.288 81.257,79.292 92.164,79.292 	"/>
	<polygon fill="#FFFFFF" points="73.812,68.288 73.812,68.288 62.901,68.288 62.901,79.292 73.812,79.292 	"/>
	<polygon fill="#FFFFFF" points="55.456,68.288 55.456,68.288 44.546,68.288 44.546,79.292 55.456,79.292 	"/>
	<polygon fill="#FFFFFF" points="37.102,68.288 37.102,68.288 26.188,68.288 26.188,79.292 37.102,79.292 	"/>
	<polygon fill="#FFFFFF" points="18.743,68.288 18.743,68.288 7.836,68.288 7.836,79.292 18.743,79.292 	"/>
</g>
</svg>
